<?xml version="1.0" encoding="iso-8859-1"?>
<!-- Generator: Adobe Illustrator 16.0.0, SVG Export Plug-In . SVG Version: 6.00 Build 0)  -->
<!DOCTYPE svg PUBLIC "-//W3C//DTD SVG 1.1//EN" "http://www.w3.org/Graphics/SVG/1.1/DTD/svg11.dtd">
<svg version="1.1" xmlns="http://www.w3.org/2000/svg" xmlns:xlink="http://www.w3.org/1999/xlink" x="0px" y="0px" width="512px"
	 height="512px" viewBox="0 0 512 512" style="enable-background:new 0 0 512 512;" xml:space="preserve">
<g id="_x33_68_-_Ableton_x2C__application_x2C__audio_x2C__computer_x2C__daw">
	<g>
		<path d="M470,30c-9.245,0-424.28,0-430,0c-5.523,0-10,4.478-10,10c0,9.245,0,424.28,0,430c0,5.522,4.477,10,10,10
			c6.578,0,420.064,0,430,0c5.522,0,10-4.478,10-10c0-6.578,0-420.064,0-430C480,34.478,475.522,30,470,30z M460,360H150V50h310V360
			z M130,200H50v-20h80V200z M130,220v20H50v-20H130z M130,260v20H50v-20H130z M130,300v20H50v-20H130z M130,160H50v-20h80V160z
			 M50,340h80v20H50V340z M130,50v70H50V50H130z M50,380h80v80H50V380z M460,460H150v-80h310V460z"/>
		<path d="M77.07,77.065c3.9-3.901,3.904-10.216,0-14.141c-3.891-3.89-10.253-3.885-14.14,0c-3.906,3.928-3.897,10.243,0,14.141
			C66.836,80.992,75.21,78.936,77.07,77.065z"/>
		<path d="M117.07,107.075c3.844-3.865,3.96-10.168,0-14.15c-3.891-3.89-10.253-3.885-14.14,0c-3.896,3.897-3.905,10.224,0,14.15
			C106.829,110.975,115.21,108.936,117.07,107.075z"/>
		<path d="M170,430h30c5.523,0,10-4.478,10-10v-10h10v30c0,5.522,4.477,10,10,10h40c5.522,0,10-4.478,10-10v-30h20v20
			c0,5.522,4.478,10,10,10h40c5.522,0,10-4.478,10-10v-10h10v20c0,5.522,4.478,10,10,10h40c5.522,0,10-4.478,10-10v-30h10
			c5.522,0,10-4.478,10-10s-4.478-10-10-10h-20c-5.522,0-10,4.478-10,10v30h-20v-20c0-5.522-4.478-10-10-10h-30
			c-5.522,0-10,4.478-10,10v10h-20v-20c0-5.522-4.478-10-10-10h-40c-5.522,0-10,4.478-10,10v30h-20v-30c0-5.522-4.477-10-10-10h-30
			c-5.523,0-10,4.478-10,10v10h-20c-5.523,0-10,4.478-10,10S164.477,430,170,430z"/>
		<rect x="60" y="390" width="20" height="20"/>
		<rect x="80" y="410" width="20" height="20"/>
		<rect x="170" y="70" width="40" height="20"/>
		<rect x="270" y="70" width="40" height="20"/>
		<rect x="340" y="70" width="40" height="20"/>
		<rect x="400" y="70" width="40" height="20"/>
		<rect x="170" y="110" width="40" height="20"/>
		<rect x="230" y="110" width="40" height="20"/>
		<rect x="340" y="110" width="40" height="20"/>
		<rect x="400" y="110" width="40" height="20"/>
		<rect x="290" y="150" width="40" height="20"/>
		<rect x="170" y="190" width="40" height="20"/>
		<rect x="240" y="190" width="40" height="20"/>
		<rect x="320" y="190" width="40" height="20"/>
		<rect x="400" y="190" width="40" height="20"/>
		<rect x="350" y="230" width="40" height="20"/>
		<rect x="170" y="270" width="40" height="20"/>
		<rect x="250" y="270" width="40" height="20"/>
		<rect x="330" y="270" width="40" height="20"/>
		<rect x="400" y="270" width="40" height="20"/>
		<rect x="170" y="310" width="40" height="20"/>
		<rect x="290" y="310" width="40" height="20"/>
		<rect x="350" y="310" width="40" height="20"/>
		<rect x="100" y="430" width="20" height="20"/>
	</g>
</g>
<g id="Layer_1">
</g>
</svg>
