<?xml version="1.0" encoding="UTF-8" standalone="no"?> <svg width="96" height="96" viewBox="0 0 96 96" fill="none" xmlns="http://www.w3.org/2000/svg">
<path fill-rule="evenodd" clip-rule="evenodd" d="M48 11C34.2087 11 24.477 20.3702 23.093 33.4954C22.9904 34.4687 22.9868 35.7889 23.0156 36.9242C23.0298 37.4795 23.0509 37.9687 23.0686 38.3184C23.0774 38.493 23.0853 38.6322 23.0909 38.7268L23.0975 38.8337L23.0991 38.8598L23.0995 38.8656C23.1732 39.9676 22.3397 40.9218 21.2376 40.9955C20.1355 41.0693 19.1823 40.2357 19.1085 39.1336L21.104 39C19.1085 39.1336 19.1085 39.1337 19.1085 39.1336L19.1076 39.12L19.1055 39.0867L19.098 38.9642C19.0917 38.8589 19.0831 38.7077 19.0737 38.52C19.0548 38.1451 19.0321 37.6217 19.0169 37.0258C18.9873 35.8588 18.9837 34.3219 19.1151 33.076C20.7053 17.9948 32.0829 7 48 7C63.9172 7 75.2948 17.9948 76.885 33.076C77.0164 34.3219 77.0128 35.8588 76.9831 37.0258C76.968 37.6217 76.9453 38.1451 76.9264 38.52C76.9169 38.7077 76.9084 38.8589 76.9021 38.9642L76.8946 39.0867L76.8925 39.12L76.8917 39.1321L76.8916 39.1333C76.8916 39.1335 76.8916 39.1336 74.896 39L76.8916 39.1333C76.8178 40.2355 75.8645 41.0693 74.7624 40.9955C73.6604 40.9218 72.8268 39.9686 72.9005 38.8666C72.9005 38.8665 72.9005 38.8666 72.9005 38.8666M72.9005 38.8666L72.9009 38.8598L72.9026 38.8337L72.9092 38.7268C72.9148 38.6322 72.9227 38.493 72.9315 38.3184C72.9491 37.9687 72.9703 37.4795 72.9844 36.9242C73.0133 35.7889 73.0097 34.4687 72.9071 33.4954C71.5231 20.3702 61.7914 11 48 11" fill="black"/>
<path d="M72 29.2794C72 28.0511 73.0503 26.856 74.5261 27.0141C79.4023 27.5365 83 31.9191 83 37C83 42.0809 79.4023 46.4635 74.5261 46.9859C73.0503 47.144 72 45.9489 72 44.7206V29.2794Z" fill="black"/>
<path d="M24 29.2794C24 28.0511 22.9497 26.856 21.4739 27.0141C16.5977 27.5365 13 31.9191 13 37C13 42.0809 16.5977 46.4635 21.4739 46.9859C22.9497 47.144 24 45.9489 24 44.7206V29.2794Z" fill="black"/>
<path d="M74 31.5956C74 30.7358 74.6684 29.8992 75.6075 30.0099C78.7106 30.3756 81 33.4434 81 37C81 40.5566 78.7106 43.6244 75.6075 43.9901C74.6684 44.1008 74 43.2642 74 42.4044V31.5956Z" fill="#2A2828"/>
<path fill-rule="evenodd" clip-rule="evenodd" d="M75.0513 31.6838C74.8767 32.2077 75.1598 32.774 75.6838 32.9487C76.2051 33.1225 78 34.3514 78 38C78 38.5523 78.4477 39 79 39C79.5523 39 80 38.5523 80 38C80 33.6486 77.7949 31.5442 76.3162 31.0513C75.7923 30.8767 75.226 31.1598 75.0513 31.6838Z" fill="#434242"/>
<path d="M22 31.5956C22 30.7358 21.3316 29.8992 20.3925 30.0099C17.2894 30.3756 15 33.4434 15 37C15 40.5566 17.2894 43.6244 20.3925 43.9901C21.3316 44.1008 22 43.2642 22 42.4044V31.5956Z" fill="#2A2828"/>
<path fill-rule="evenodd" clip-rule="evenodd" d="M20.9487 31.6838C21.1233 32.2077 20.8402 32.774 20.3162 32.9487C19.7949 33.1225 18 34.3514 18 38C18 38.5523 17.5523 39 17 39C16.4477 39 16 38.5523 16 38C16 33.6486 18.2051 31.5442 19.6838 31.0513C20.2077 30.8767 20.774 31.1598 20.9487 31.6838Z" fill="#434242"/>
<path fill-rule="evenodd" clip-rule="evenodd" d="M31 37C31.5523 37 32 37.4477 32 38V68C32 71.866 35.134 75 39 75H57C60.866 75 64 71.866 64 68V38C64 37.4477 64.4477 37 65 37C65.5523 37 66 37.4477 66 38V68C66 72.9706 61.9706 77 57 77H39C34.0294 77 30 72.9706 30 68V38C30 37.4477 30.4477 37 31 37Z" fill="black"/>
<path d="M46 73H50L53 87H43L46 73Z" fill="#3E3B3B"/>
<path fill-rule="evenodd" clip-rule="evenodd" d="M44.0444 72.5809C44.242 71.6588 45.0569 71 46 71H50C50.9431 71 51.758 71.6588 51.9556 72.5809L54.9556 86.5809C55.0822 87.1715 54.9351 87.7877 54.5554 88.2574C54.1756 88.7271 53.604 89 53 89H43C42.396 89 41.8244 88.7271 41.4447 88.2574C41.065 87.7877 40.9179 87.1715 41.0444 86.5809L44.0444 72.5809ZM46 73H50L53 87H43L46 73Z" fill="black"/>
<path d="M46 73H47L46 87H43L46 73Z" fill="#575454"/>
<path d="M49 73H50L53 87H50L49 73Z" fill="#212020"/>
<path d="M35 26C35 23.7909 36.7909 22 39 22H57C59.2091 22 61 23.7909 61 26V64C61 66.2091 59.2091 68 57 68H39C36.7909 68 35 66.2091 35 64V26Z" fill="#525252"/>
<path fill-rule="evenodd" clip-rule="evenodd" d="M39 20H57C60.3137 20 63 22.6863 63 26V64C63 67.3137 60.3137 70 57 70H39C35.6863 70 33 67.3137 33 64V26C33 22.6863 35.6863 20 39 20ZM39 22C36.7909 22 35 23.7909 35 26V64C35 66.2091 36.7909 68 39 68H57C59.2091 68 61 66.2091 61 64V26C61 23.7909 59.2091 22 57 22H39Z" fill="black"/>
<path fill-rule="evenodd" clip-rule="evenodd" d="M59 25C59.5523 25 60 25.4477 60 26V54H58V26C58 25.4477 58.4477 25 59 25Z" fill="#757575"/>
<path fill-rule="evenodd" clip-rule="evenodd" d="M37 25C37.5523 25 38 25.4477 38 26V54H36V26C36 25.4477 36.4477 25 37 25Z" fill="#9D9D9D"/>
<path d="M35 54H61V64C61 66.2091 59.2091 68 57 68H39C36.7909 68 35 66.2091 35 64V54Z" fill="#312E2E"/>
<path fill-rule="evenodd" clip-rule="evenodd" d="M36 64V54H38V64C38 64.5523 37.5523 65 37 65C36.4477 65 36 64.5523 36 64Z" fill="#535353"/>
<path fill-rule="evenodd" clip-rule="evenodd" d="M58 64V54H60V64C60 64.5523 59.5523 65 59 65C58.4477 65 58 64.5523 58 64Z" fill="#535353"/>
<path d="M59 25C59 24.4477 58.5523 24 58 24C57.4477 24 57 24.4477 57 25C57 25.5523 57.4477 26 58 26C58.5523 26 59 25.5523 59 25Z" fill="#353535"/>
<path d="M59 29C59 28.4477 58.5523 28 58 28C57.4477 28 57 28.4477 57 29C57 29.5523 57.4477 30 58 30C58.5523 30 59 29.5523 59 29Z" fill="#353535"/>
<path d="M55 29C55 28.4477 54.5523 28 54 28C53.4477 28 53 28.4477 53 29C53 29.5523 53.4477 30 54 30C54.5523 30 55 29.5523 55 29Z" fill="#353535"/>
<path d="M57 27C57 26.4477 56.5523 26 56 26C55.4477 26 55 26.4477 55 27C55 27.5523 55.4477 28 56 28C56.5523 28 57 27.5523 57 27Z" fill="#353535"/>
<path d="M53 27C53 26.4477 52.5523 26 52 26C51.4477 26 51 26.4477 51 27C51 27.5523 51.4477 28 52 28C52.5523 28 53 27.5523 53 27Z" fill="#353535"/>
<path d="M55 25C55 24.4477 54.5523 24 54 24C53.4477 24 53 24.4477 53 25C53 25.5523 53.4477 26 54 26C54.5523 26 55 25.5523 55 25Z" fill="#353535"/>
<path d="M57 31C57 30.4477 56.5523 30 56 30C55.4477 30 55 30.4477 55 31C55 31.5523 55.4477 32 56 32C56.5523 32 57 31.5523 57 31Z" fill="#353535"/>
<path d="M57 35C57 34.4477 56.5523 34 56 34C55.4477 34 55 34.4477 55 35C55 35.5523 55.4477 36 56 36C56.5523 36 57 35.5523 57 35Z" fill="#353535"/>
<path d="M53 35C53 34.4477 52.5523 34 52 34C51.4477 34 51 34.4477 51 35C51 35.5523 51.4477 36 52 36C52.5523 36 53 35.5523 53 35Z" fill="#353535"/>
<path d="M55 33C55 32.4477 54.5523 32 54 32C53.4477 32 53 32.4477 53 33C53 33.5523 53.4477 34 54 34C54.5523 34 55 33.5523 55 33Z" fill="#353535"/>
<path d="M59 33C59 32.4477 58.5523 32 58 32C57.4477 32 57 32.4477 57 33C57 33.5523 57.4477 34 58 34C58.5523 34 59 33.5523 59 33Z" fill="#353535"/>
<path d="M59 37C59 36.4477 58.5523 36 58 36C57.4477 36 57 36.4477 57 37C57 37.5523 57.4477 38 58 38C58.5523 38 59 37.5523 59 37Z" fill="#353535"/>
<path d="M55 37C55 36.4477 54.5523 36 54 36C53.4477 36 53 36.4477 53 37C53 37.5523 53.4477 38 54 38C54.5523 38 55 37.5523 55 37Z" fill="#353535"/>
<path d="M51 33C51 32.4477 50.5523 32 50 32C49.4477 32 49 32.4477 49 33C49 33.5523 49.4477 34 50 34C50.5523 34 51 33.5523 51 33Z" fill="#353535"/>
<path d="M53 31C53 30.4477 52.5523 30 52 30C51.4477 30 51 30.4477 51 31C51 31.5523 51.4477 32 52 32C52.5523 32 53 31.5523 53 31Z" fill="#353535"/>
<path d="M51 25C51 24.4477 50.5523 24 50 24C49.4477 24 49 24.4477 49 25C49 25.5523 49.4477 26 50 26C50.5523 26 51 25.5523 51 25Z" fill="#353535"/>
<path d="M51 29C51 28.4477 50.5523 28 50 28C49.4477 28 49 28.4477 49 29C49 29.5523 49.4477 30 50 30C50.5523 30 51 29.5523 51 29Z" fill="#353535"/>
<path d="M47 29C47 28.4477 46.5523 28 46 28C45.4477 28 45 28.4477 45 29C45 29.5523 45.4477 30 46 30C46.5523 30 47 29.5523 47 29Z" fill="#353535"/>
<path d="M49 27C49 26.4477 48.5523 26 48 26C47.4477 26 47 26.4477 47 27C47 27.5523 47.4477 28 48 28C48.5523 28 49 27.5523 49 27Z" fill="#353535"/>
<path d="M45 27C45 26.4477 44.5523 26 44 26C43.4477 26 43 26.4477 43 27C43 27.5523 43.4477 28 44 28C44.5523 28 45 27.5523 45 27Z" fill="#353535"/>
<path d="M47 25C47 24.4477 46.5523 24 46 24C45.4477 24 45 24.4477 45 25C45 25.5523 45.4477 26 46 26C46.5523 26 47 25.5523 47 25Z" fill="#353535"/>
<path d="M49 31C49 30.4477 48.5523 30 48 30C47.4477 30 47 30.4477 47 31C47 31.5523 47.4477 32 48 32C48.5523 32 49 31.5523 49 31Z" fill="#353535"/>
<path d="M49 35C49 34.4477 48.5523 34 48 34C47.4477 34 47 34.4477 47 35C47 35.5523 47.4477 36 48 36C48.5523 36 49 35.5523 49 35Z" fill="#353535"/>
<path d="M45 35C45 34.4477 44.5523 34 44 34C43.4477 34 43 34.4477 43 35C43 35.5523 43.4477 36 44 36C44.5523 36 45 35.5523 45 35Z" fill="#353535"/>
<path d="M47 33C47 32.4477 46.5523 32 46 32C45.4477 32 45 32.4477 45 33C45 33.5523 45.4477 34 46 34C46.5523 34 47 33.5523 47 33Z" fill="#353535"/>
<path d="M43 25C43 24.4477 42.5523 24 42 24C41.4477 24 41 24.4477 41 25C41 25.5523 41.4477 26 42 26C42.5523 26 43 25.5523 43 25Z" fill="#353535"/>
<path d="M41 27C41 26.4477 40.5523 26 40 26C39.4477 26 39 26.4477 39 27C39 27.5523 39.4477 28 40 28C40.5523 28 41 27.5523 41 27Z" fill="#353535"/>
<path d="M43 29C43 28.4477 42.5523 28 42 28C41.4477 28 41 28.4477 41 29C41 29.5523 41.4477 30 42 30C42.5523 30 43 29.5523 43 29Z" fill="#353535"/>
<path d="M51 37C51 36.4477 50.5523 36 50 36C49.4477 36 49 36.4477 49 37C49 37.5523 49.4477 38 50 38C50.5523 38 51 37.5523 51 37Z" fill="#353535"/>
<path d="M53 39C53 38.4477 52.5523 38 52 38C51.4477 38 51 38.4477 51 39C51 39.5523 51.4477 40 52 40C52.5523 40 53 39.5523 53 39Z" fill="#353535"/>
<path d="M57 39C57 38.4477 56.5523 38 56 38C55.4477 38 55 38.4477 55 39C55 39.5523 55.4477 40 56 40C56.5523 40 57 39.5523 57 39Z" fill="#353535"/>
<path d="M59 41C59 40.4477 58.5523 40 58 40C57.4477 40 57 40.4477 57 41C57 41.5523 57.4477 42 58 42C58.5523 42 59 41.5523 59 41Z" fill="#353535"/>
<path d="M55 41C55 40.4477 54.5523 40 54 40C53.4477 40 53 40.4477 53 41C53 41.5523 53.4477 42 54 42C54.5523 42 55 41.5523 55 41Z" fill="#353535"/>
<path d="M51 41C51 40.4477 50.5523 40 50 40C49.4477 40 49 40.4477 49 41C49 41.5523 49.4477 42 50 42C50.5523 42 51 41.5523 51 41Z" fill="#353535"/>
<path d="M57 43C57 42.4477 56.5523 42 56 42C55.4477 42 55 42.4477 55 43C55 43.5523 55.4477 44 56 44C56.5523 44 57 43.5523 57 43Z" fill="#353535"/>
<path d="M59 45C59 44.4477 58.5523 44 58 44C57.4477 44 57 44.4477 57 45C57 45.5523 57.4477 46 58 46C58.5523 46 59 45.5523 59 45Z" fill="#353535"/>
<path d="M43 33C43 32.4477 42.5523 32 42 32C41.4477 32 41 32.4477 41 33C41 33.5523 41.4477 34 42 34C42.5523 34 43 33.5523 43 33Z" fill="#353535"/>
<path d="M45 31C45 30.4477 44.5523 30 44 30C43.4477 30 43 30.4477 43 31C43 31.5523 43.4477 32 44 32C44.5523 32 45 31.5523 45 31Z" fill="#353535"/>
<path d="M51 61C51 62.6569 49.6569 64 48 64C46.3431 64 45 62.6569 45 61C45 59.3431 46.3431 58 48 58C49.6569 58 51 59.3431 51 61Z" fill="#525252"/>
<path fill-rule="evenodd" clip-rule="evenodd" d="M53 61C53 63.7614 50.7614 66 48 66C45.2386 66 43 63.7614 43 61C43 58.2386 45.2386 56 48 56C50.7614 56 53 58.2386 53 61ZM48 64C49.6569 64 51 62.6569 51 61C51 59.3431 49.6569 58 48 58C46.3431 58 45 59.3431 45 61C45 62.6569 46.3431 64 48 64Z" fill="#191919"/>
<path d="M48 60C48 60.5523 47.5523 61 47 61C46.4477 61 46 60.5523 46 60C46 59.4477 46.4477 59 47 59C47.5523 59 48 59.4477 48 60Z" fill="#6C6C6C"/>
<path d="M31 42.5C31 41.6716 31.6716 41 32.5 41C33.3284 41 34 41.6716 34 42.5V47.5C34 48.3284 33.3284 49 32.5 49C31.6716 49 31 48.3284 31 47.5V42.5Z" fill="black"/>
<path d="M62 42.5C62 41.6716 62.6716 41 63.5 41C64.3284 41 65 41.6716 65 42.5V47.5C65 48.3284 64.3284 49 63.5 49C62.6716 49 62 48.3284 62 47.5V42.5Z" fill="black"/>
</svg>
